<svg xmlns="http://www.w3.org/2000/svg" viewBox="0 0 900 500">
  <rect width="900" height="500" fill="#FCE4EC"/>
  <text x="450" y="45" text-anchor="middle" font-family="Arial" font-size="34" font-weight="700" fill="#1B5E20">Il fiore e le sue parti</text>

  <!-- fiore -->
  <g transform="translate(450 250)">
    <ellipse cx="0" cy="-95" rx="70" ry="115" fill="#F48FB1" stroke="#AD1457" stroke-width="5"/>
    <ellipse cx="-90" cy="-40" rx="65" ry="105" fill="#F06292" stroke="#AD1457" stroke-width="5" transform="rotate(-45 -90 -40)"/>
    <ellipse cx="90" cy="-40" rx="65" ry="105" fill="#F06292" stroke="#AD1457" stroke-width="5" transform="rotate(45 90 -40)"/>
    <ellipse cx="-60" cy="40" rx="65" ry="105" fill="#EC407A" stroke="#AD1457" stroke-width="5" transform="rotate(-105 -60 40)"/>
    <ellipse cx="60" cy="40" rx="65" ry="105" fill="#EC407A" stroke="#AD1457" stroke-width="5" transform="rotate(105 60 40)"/>

    <path d="M-80 60 C-130 50 -150 95 -115 125 C-85 95 -70 75 -80 60" fill="#43A047" stroke="#1B5E20" stroke-width="5"/>
    <path d="M80 60 C130 50 150 95 115 125 C85 95 70 75 80 60" fill="#43A047" stroke="#1B5E20" stroke-width="5"/>

    <ellipse cx="0" cy="85" rx="55" ry="62" fill="#66BB6A" stroke="#1B5E20" stroke-width="5"/>
    <circle cx="-15" cy="88" r="8" fill="#FFD54F"/>
    <circle cx="8" cy="75" r="8" fill="#FFD54F"/>
    <circle cx="18" cy="100" r="8" fill="#FFD54F"/>

    <path d="M0 80 C2 10 -2 -45 0 -120" fill="none" stroke="#2E7D32" stroke-width="13" stroke-linecap="round"/>
    <circle cx="0" cy="-132" r="17" fill="#81C784" stroke="#1B5E20" stroke-width="5"/>

    <g stroke="#6D4C41" stroke-width="7" stroke-linecap="round" fill="none">
      <path d="M-55 60 C-70 0 -65 -55 -45 -100"/>
      <path d="M-25 60 C-35 0 -30 -55 -18 -105"/>
      <path d="M25 60 C35 0 30 -55 18 -105"/>
      <path d="M55 60 C70 0 65 -55 45 -100"/>
    </g>
    <g fill="#FFD54F" stroke="#F9A825" stroke-width="4">
      <ellipse cx="-45" cy="-110" rx="13" ry="22"/>
      <ellipse cx="-18" cy="-115" rx="13" ry="22"/>
      <ellipse cx="18" cy="-115" rx="13" ry="22"/>
      <ellipse cx="45" cy="-110" rx="13" ry="22"/>
    </g>

    <rect x="-15" y="135" width="30" height="105" rx="12" fill="#2E7D32"/>
  </g>

  <!-- linee ed etichette -->
  <g font-family="Arial" font-size="22" font-weight="700">
    <line x1="180" y1="120" x2="355" y2="160" stroke="#AD1457" stroke-width="4"/>
    <rect x="55" y="92" width="140" height="42" rx="14" fill="#FFFFFF" stroke="#AD1457" stroke-width="3"/>
    <text x="125" y="120" text-anchor="middle" fill="#AD1457">petalo</text>

    <line x1="190" y1="310" x2="370" y2="305" stroke="#1B5E20" stroke-width="4"/>
    <rect x="55" y="287" width="140" height="42" rx="14" fill="#FFFFFF" stroke="#1B5E20" stroke-width="3"/>
    <text x="125" y="315" text-anchor="middle" fill="#1B5E20">sepalo</text>

    <line x1="720" y1="125" x2="500" y2="135" stroke="#6D4C41" stroke-width="4"/>
    <rect x="705" y="100" width="140" height="42" rx="14" fill="#FFFFFF" stroke="#6D4C41" stroke-width="3"/>
    <text x="775" y="128" text-anchor="middle" fill="#6D4C41">stame</text>

    <line x1="720" y1="185" x2="495" y2="137" stroke="#F9A825" stroke-width="4"/>
    <rect x="705" y="165" width="140" height="42" rx="14" fill="#FFFFFF" stroke="#F9A825" stroke-width="3"/>
    <text x="775" y="193" text-anchor="middle" fill="#F57F17">antera</text>

    <line x1="720" y1="255" x2="450" y2="130" stroke="#2E7D32" stroke-width="4"/>
    <rect x="705" y="232" width="140" height="42" rx="14" fill="#FFFFFF" stroke="#2E7D32" stroke-width="3"/>
    <text x="775" y="260" text-anchor="middle" fill="#2E7D32">pistillo</text>

    <line x1="720" y1="325" x2="450" y2="335" stroke="#1B5E20" stroke-width="4"/>
    <rect x="705" y="302" width="140" height="42" rx="14" fill="#FFFFFF" stroke="#1B5E20" stroke-width="3"/>
    <text x="775" y="330" text-anchor="middle" fill="#1B5E20">ovario</text>

    <line x1="720" y1="390" x2="470" y2="340" stroke="#F9A825" stroke-width="4"/>
    <rect x="705" y="367" width="140" height="42" rx="14" fill="#FFFFFF" stroke="#F9A825" stroke-width="3"/>
    <text x="775" y="395" text-anchor="middle" fill="#F57F17">ovulo</text>
  </g>
</svg>
