<svg xmlns="http://www.w3.org/2000/svg" viewBox="0 0 900 500">
  <rect width="450" height="500" fill="#E3F2FD"/>
  <rect x="450" width="450" height="500" fill="#1A237E"/>

  <text x="225" y="45" text-anchor="middle" font-family="Arial" font-size="34" font-weight="700" fill="#1B5E20">DI GIORNO</text>
  <text x="675" y="45" text-anchor="middle" font-family="Arial" font-size="34" font-weight="700" fill="#FFFFFF">DI NOTTE</text>

  <circle cx="80" cy="105" r="42" fill="#FFD54F"/>
  <path d="M700 85 C730 100 765 90 790 65 C790 125 745 165 690 145 C720 135 735 110 700 85Z" fill="#FFF59D"/>

  <rect x="0" y="365" width="900" height="135" fill="#8D6E63"/>

  <!-- pianta giorno -->
  <rect x="215" y="205" width="35" height="165" rx="16" fill="#2E7D32"/>
  <ellipse cx="185" cy="215" rx="70" ry="35" fill="#66BB6A" stroke="#2E7D32" stroke-width="4" transform="rotate(-25 185 215)"/>
  <ellipse cx="280" cy="215" rx="70" ry="35" fill="#66BB6A" stroke="#2E7D32" stroke-width="4" transform="rotate(25 280 215)"/>

  <!-- pianta notte -->
  <rect x="655" y="205" width="35" height="165" rx="16" fill="#2E7D32"/>
  <ellipse cx="625" cy="215" rx="70" ry="35" fill="#66BB6A" stroke="#2E7D32" stroke-width="4" transform="rotate(-25 625 215)"/>
  <ellipse cx="720" cy="215" rx="70" ry="35" fill="#66BB6A" stroke="#2E7D32" stroke-width="4" transform="rotate(25 720 215)"/>

  <!-- giorno frecce -->
  <path d="M80 250 C120 235 150 225 190 220" stroke="#E53935" stroke-width="9" fill="none" stroke-linecap="round"/>
  <path d="M190 220 L155 205 L160 240 Z" fill="#E53935"/>
  <text x="90" y="285" font-family="Arial" font-size="20" font-weight="700" fill="#B71C1C">anidride carbonica</text>

  <path d="M275 180 C330 155 365 140 410 115" stroke="#43A047" stroke-width="9" fill="none" stroke-linecap="round"/>
  <path d="M410 115 L370 108 L390 140 Z" fill="#43A047"/>
  <text x="315" y="105" font-family="Arial" font-size="22" font-weight="700" fill="#1B5E20">ossigeno</text>

  <rect x="95" y="395" width="270" height="70" rx="20" fill="#FFFFFF" stroke="#43A047" stroke-width="4"/>
  <text x="230" y="425" text-anchor="middle" font-family="Arial" font-size="19" font-weight="700" fill="#1B5E20">Respira + fa fotosintesi</text>
  <text x="230" y="450" text-anchor="middle" font-family="Arial" font-size="18" font-weight="700" fill="#1B5E20">libera ossigeno</text>

  <!-- notte frecce -->
  <path d="M560 230 C595 220 625 215 655 215" stroke="#90CAF9" stroke-width="9" fill="none" stroke-linecap="round"/>
  <path d="M655 215 L620 200 L625 235 Z" fill="#90CAF9"/>
  <text x="500" y="265" font-family="Arial" font-size="22" font-weight="700" fill="#BBDEFB">ossigeno</text>

  <path d="M715 185 C760 160 795 145 840 125" stroke="#FF8A80" stroke-width="9" fill="none" stroke-linecap="round"/>
  <path d="M840 125 L800 118 L820 150 Z" fill="#FF8A80"/>
  <text x="695" y="105" font-family="Arial" font-size="20" font-weight="700" fill="#FFCDD2">anidride carbonica</text>

  <rect x="530" y="395" width="300" height="70" rx="20" fill="#FFFFFF" stroke="#90CAF9" stroke-width="4"/>
  <text x="680" y="425" text-anchor="middle" font-family="Arial" font-size="19" font-weight="700" fill="#1A237E">Respira soltanto</text>
  <text x="680" y="450" text-anchor="middle" font-family="Arial" font-size="18" font-weight="700" fill="#1A237E">non fa fotosintesi</text>
</svg>
