<svg xmlns="http://www.w3.org/2000/svg" viewBox="0 0 800 500">
  <rect width="800" height="500" fill="#E8F5E9"/>

  <text x="400" y="42" text-anchor="middle" font-family="Arial" font-size="32" font-weight="bold" fill="#2E7D32">
    Tocca la parte giusta
  </text>

  <circle cx="400" cy="260" r="165" fill="#90CAF9" stroke="#1565C0" stroke-width="5"/>

  <path d="M260 180 C330 135 470 145 535 210 C470 230 340 225 260 180 Z" fill="#81C784"/>
  <path d="M285 325 C370 295 500 315 540 365 C445 395 340 370 285 325 Z" fill="#66BB6A"/>

  <path d="M235 260 Q400 315 565 260" fill="none" stroke="#00C853" stroke-width="12"/>

  <rect x="250" y="105" width="300" height="45" rx="16" fill="#FFFFFF" stroke="#2E7D32" stroke-width="3"/>
  <text x="400" y="136" text-anchor="middle" font-family="Arial" font-size="24" font-weight="bold" fill="#2E7D32">
    Emisfero Boreale
  </text>

  <rect x="250" y="380" width="300" height="45" rx="16" fill="#FFFFFF" stroke="#EF6C00" stroke-width="3"/>
  <text x="400" y="411" text-anchor="middle" font-family="Arial" font-size="24" font-weight="bold" fill="#EF6C00">
    Emisfero Australe
  </text>

  <rect x="565" y="240" width="155" height="45" rx="16" fill="#FFFFFF" stroke="#00A152" stroke-width="3"/>
  <text x="642" y="270" text-anchor="middle" font-family="Arial" font-size="24" font-weight="bold" fill="#00A152">
    Equatore
  </text>

  <path d="M565 262 L520 262" stroke="#00A152" stroke-width="4"/>

  <circle cx="400" cy="135" r="20" fill="#2E7D32"/>
  <text x="400" y="144" text-anchor="middle" font-family="Arial" font-size="24" font-weight="bold" fill="white">1</text>

  <circle cx="400" cy="260" r="20" fill="#00A152"/>
  <text x="400" y="269" text-anchor="middle" font-family="Arial" font-size="24" font-weight="bold" fill="white">2</text>

  <circle cx="400" cy="400" r="20" fill="#EF6C00"/>
  <text x="400" y="409" text-anchor="middle" font-family="Arial" font-size="24" font-weight="bold" fill="white">3</text>
</svg>
