<svg xmlns="http://www.w3.org/2000/svg" viewBox="0 0 900 500">
  <rect width="900" height="500" fill="#E0F7FA"/>
  <text x="450" y="50" text-anchor="middle" font-family="Arial" font-size="36" font-weight="700" fill="#00695C">La traspirazione</text>

  <path d="M445 115 C640 120 735 250 665 355 C580 475 360 430 245 335 C125 235 225 100 445 115Z" fill="#66BB6A" stroke="#2E7D32" stroke-width="8"/>
  <path d="M245 335 C380 270 505 210 665 160" stroke="#1B5E20" stroke-width="8" fill="none" stroke-linecap="round"/>

  <g stroke="#2E7D32" stroke-width="5" stroke-linecap="round" fill="none">
    <path d="M350 285 C320 235 300 190 285 145"/>
    <path d="M430 250 C430 205 435 160 445 120"/>
    <path d="M520 220 C570 180 610 145 650 125"/>
    <path d="M440 315 C470 360 500 390 555 420"/>
  </g>

  <!-- stomi -->
  <g fill="#E3F2FD" stroke="#0D47A1" stroke-width="3">
    <ellipse cx="410" cy="290" rx="18" ry="9"/>
    <ellipse cx="500" cy="265" rx="18" ry="9"/>
    <ellipse cx="555" cy="320" rx="18" ry="9"/>
  </g>

  <!-- vapore -->
  <g stroke="#29B6F6" stroke-width="8" fill="none" stroke-linecap="round">
    <path d="M405 275 C370 230 390 190 355 150"/>
    <path d="M500 250 C475 205 495 165 470 120"/>
    <path d="M555 305 C610 260 590 220 635 175"/>
  </g>

  <g fill="#29B6F6">
    <path d="M355 150 L345 190 L380 175Z"/>
    <path d="M470 120 L460 160 L495 145Z"/>
    <path d="M635 175 L595 188 L620 215Z"/>
  </g>

  <rect x="70" y="365" width="330" height="80" rx="24" fill="#FFFFFF" stroke="#4DD0E1" stroke-width="5"/>
  <text x="235" y="398" text-anchor="middle" font-family="Arial" font-size="22" font-weight="700" fill="#00695C">La foglia elimina</text>
  <text x="235" y="427" text-anchor="middle" font-family="Arial" font-size="22" font-weight="700" fill="#00695C">vapore acqueo</text>

  <rect x="560" y="365" width="280" height="80" rx="24" fill="#FFFFFF" stroke="#4DD0E1" stroke-width="5"/>
  <text x="700" y="398" text-anchor="middle" font-family="Arial" font-size="22" font-weight="700" fill="#00695C">attraverso</text>
  <text x="700" y="427" text-anchor="middle" font-family="Arial" font-size="22" font-weight="700" fill="#00695C">gli stomi</text>
</svg>
